<svg xmlns="http://www.w3.org/2000/svg" width="344" height="79" fill="none"><path fill="#003087" d="M339.48 4H4a4 4 0 00-4 4v47a4 4 0 004 4h335.48a4 4 0 004-4V8a4 4 0 00-4-4z"/><path fill="#005EB8" d="M339.48 0H4a4 4 0 00-4 4v47a4 4 0 004 4h335.48a4 4 0 004-4V4a4 4 0 00-4-4z"/><path fill="#005EB8" d="M341.63 2H2v51h339.63V2z"/><path fill="#005EB8" d="M325.631 14h-224.58v27h224.58V14z"/><path fill="#fff" d="M112.379 33.89a13.826 13.826 0 01-3.06.42c-4.6 0-7.37-2.38-7.37-6.71 0-4.54 2.75-7.18 7.37-7.18 1.025.01 2.041.2 3 .56l-.19 2.27a5.51 5.51 0 00-2.9-.71c-2.72 0-4.51 2.06-4.51 4.87s1.77 4.79 4.56 4.79a7.599 7.599 0 003-.56l.1 2.25zM118.68 34.31a4.887 4.887 0 01-4.853-3.107 4.887 4.887 0 01-.327-2.013 5.198 5.198 0 011.435-3.816 5.201 5.201 0 013.75-1.601 5.194 5.194 0 014.858 3.362c.246.656.358 1.355.327 2.055a4.883 4.883 0 01-1.45 3.72 4.889 4.889 0 01-3.74 1.4zm2.5-5.42c0-1.58-.85-2.95-2.5-2.95s-2.48 1.39-2.48 2.95c0 2.09.8 3.42 2.48 3.42s2.5-1.31 2.5-3.42zM132.42 34.08v-5.56c0-1.48-.31-2.58-1.67-2.58-1.64 0-2.27 1.58-2.27 3.33v4.81h-2.58v-9.91h2.44v1.35a3.704 3.704 0 013.25-1.58c2.27 0 3.37 1.56 3.37 3.89v6.25h-2.54zM143.55 34.08a6.563 6.563 0 01-1.89.23 2.922 2.922 0 01-3.16-3.21v-5h-1.9v-1.93h1.9v-2l2.58-.83v2.81h2.29v1.89h-2.29v4.6c0 1 .33 1.65 1.23 1.65a2.21 2.21 0 001.16-.27l.08 2.06zM145.199 22.36V19.9h2.58v2.46h-2.58zm0 11.72v-9.91h2.58v9.91h-2.58zM157 34.08v-5.56c0-1.48-.31-2.58-1.67-2.58-1.64 0-2.28 1.58-2.28 3.33v4.81h-2.55v-9.91h2.44v1.35a3.691 3.691 0 013.25-1.58c2.27 0 3.37 1.56 3.37 3.89v6.25H157zM168.909 34.08v-1.34a4.16 4.16 0 01-3.26 1.57c-2.21 0-3.36-1.48-3.36-3.88v-6.26h2.58v5.66c0 2 .73 2.48 1.67 2.48 1.56 0 2.27-1.44 2.27-3.35v-4.79h2.58v9.91h-2.48zM182 33.52a6.76 6.76 0 01-3.38.79c-3.29 0-5.2-1.88-5.2-5.13 0-2.78 1.45-5.24 4.6-5.24 3.37 0 4.72 2.08 4.72 6h-6.85a2.585 2.585 0 001.791 2.39c.339.109.696.146 1.049.11a6.659 6.659 0 003.27-1v2.08zm-1.73-5.36c-.09-1.43-.77-2.33-2.11-2.33a2.232 2.232 0 00-2.27 2.33h4.38zM199.56 34.08l-2.16-7.56-2.11 7.56h-2.99l-3.3-9.91h2.74l2.19 7.33 2-7.33h3l2.16 7.33 2.06-7.33h2.47l-3 9.91h-3.06zM207.24 22.36V19.9h2.58v2.46h-2.58zm0 11.72v-9.91h2.58v9.91h-2.58zM218.421 34.08a6.559 6.559 0 01-1.89.23 2.923 2.923 0 01-3.002-1.946 2.92 2.92 0 01-.148-1.264v-5h-1.91v-1.93h1.91v-2l2.58-.83v2.81h2.29v1.89h-2.25v4.6c0 1 .32 1.65 1.23 1.65.4.016.798-.077 1.15-.27l.04 2.06zM226.54 34.08v-5.6c0-1.81-.54-2.54-1.67-2.54-1.52 0-2.27 1.39-2.27 3.35v4.79H220V19.65h2.58v5.87a3.676 3.676 0 013.11-1.58c2.29 0 3.37 1.6 3.37 3.87v6.27h-2.52zM244.999 34.08l-5.14-10v10h-2.58V20.65h3.31l5.12 10.05v-10h2.58v13.38h-3.29zM259.341 34.08v-5.89h-5.34v5.89h-2.69V20.65h2.69v5.43h5.39v-5.43h2.61v13.43h-2.66zM265.18 31.37a6.49 6.49 0 003 .83c1 0 2.38-.5 2.38-1.74 0-1-.9-1.46-2.23-2-1.79-.69-3.66-1.44-3.66-4 0-2.89 2.18-4.1 4.72-4.1a10 10 0 013.19.48l-.25 2.21a7 7 0 00-2.73-.57 1.868 1.868 0 00-2.12 1.86c0 1 1.16 1.41 2.27 1.85 1.81.67 3.62 1.5 3.62 4s-1.85 4.06-5.06 4.06a11.698 11.698 0 01-3.42-.52l.29-2.36zM281 34.08V19.65h2.57v14.43H281zM290.871 34.31a4.903 4.903 0 01-4.85-3.109 4.897 4.897 0 01-.33-2.01 5.18 5.18 0 011.435-3.817 5.201 5.201 0 013.75-1.601 5.194 5.194 0 014.858 3.362c.246.656.358 1.355.327 2.055a4.883 4.883 0 01-1.45 3.72 4.889 4.889 0 01-3.74 1.4zm2.5-5.42c0-1.58-.85-2.95-2.5-2.95s-2.48 1.39-2.48 2.95c0 2.09.81 3.42 2.48 3.42s2.5-1.31 2.5-3.42zM304.609 32.5a3.51 3.51 0 01-3.08 1.58c-2.73 0-4-2.08-4-5 0-2.39 1.24-5.14 4.2-5.14a3.277 3.277 0 013 1.58v-1.35h2.46v9c0 3.35-1.73 5.19-5.2 5.19a8.682 8.682 0 01-3.46-.67l.21-2.19c.9.486 1.891.78 2.91.86 2.42 0 3-1.56 3-3.61l-.04-.25zm0-3.48c0-1.52-.54-3.08-2.17-3.08s-2.29 1.33-2.29 3.14c0 1.35.71 3 2.19 3 1.66 0 2.27-1.46 2.27-3.08v.02zM309.91 22.36V19.9h2.58v2.46h-2.58zm0 11.72v-9.91h2.58v9.91h-2.58zM321.719 34.08v-5.56c0-1.48-.3-2.58-1.67-2.58-1.64 0-2.27 1.58-2.27 3.33v4.81h-2.58v-9.91h2.44v1.35a3.704 3.704 0 013.25-1.58c2.27 0 3.37 1.56 3.37 3.89v6.25h-2.54z"/><path fill="#005EB8" d="M18.54 14.54v25.92h65.88V14.54H18.54z"/><path fill="#fff" d="M85.05 41V14H18v27h67.05zM45 16.61l-4.67 21.73h-7.26l-4.57-15h-.06l-3 15h-5.55l4.67-21.73h7.28l4.48 15.07h.06l3.07-15.07H45zm20.77 0L61.2 38.34h-5.85L57.29 29h-6.92l-1.94 9.31h-5.85l4.54-21.73H53l-1.72 8.31h6.91l1.72-8.31 5.86.03zm16.81.59l-1.41 4.33a11 11 0 00-4.82-1c-2.31 0-4.19.34-4.19 2.09 0 3.08 8.48 1.93 8.48 8.53 0 6-5.6 7.56-10.67 7.56a24.581 24.581 0 01-6.76-1.12l1.38-4.42a11.37 11.37 0 005.38 1.25c1.81 0 4.66-.35 4.66-2.59 0-3.49-8.48-2.18-8.48-8.31 0-5.61 4.94-7.29 9.73-7.29a17.91 17.91 0 016.7 1v-.03z"/><path fill="#fff" stroke="#000" d="M273.691 61.114l4.741 5.387V49.37l2.801-1.185 1.724 1.185-.538 5.549h3.124l1.778 1.239c.772.018 2.392.043 2.693 0 .302-.044 1.311 1.13 1.778 1.724l4.256.97v10.45l-2.64 8.566-14.114-.646-8.189-13.684.485-1.94 2.101-.484z"/><path fill="#000" d="M293.87 56.876c-.452 0-.883.094-1.274.264a3.235 3.235 0 00-3.002-2.053c-.506 0-.985.117-1.411.326a3.232 3.232 0 00-2.866-1.752 3.19 3.19 0 00-1.045.175v-3.582c0-1.794-1.45-3.254-3.232-3.254-1.782 0-3.231 1.46-3.231 3.254v12.89l-2.328-2.662a3.239 3.239 0 00-2.34-1.008h-.017c-.863 0-1.672.333-2.278.94-1.068 1.069-1.128 2.655-.162 4.354 1.251 2.197 2.61 4.268 3.809 6.096.877 1.336 1.704 2.597 2.31 3.64.524.906 1.918 3.842 1.932 3.871.181.382.565.625.987.625h13.82c.475 0 .895-.306 1.041-.758.258-.802 2.519-7.908 2.519-10.653V60.13c0-1.794-1.45-3.254-3.232-3.254zm-1.045 3.254c0-.589.469-1.068 1.045-1.068.577 0 1.046.479 1.046 1.068v7.46c0 1.823-1.402 6.726-2.175 9.224h-12.33c-.453-.943-1.302-2.69-1.718-3.406-.635-1.096-1.479-2.382-2.372-3.744-1.182-1.8-2.521-3.84-3.737-5.977-.317-.559-.608-1.311-.192-1.728.194-.194.456-.296.738-.3.276.002.535.106.734.294l4.215 4.822a1.093 1.093 0 001.916-.72V50.255c0-.59.469-1.068 1.045-1.068.577 0 1.046.479 1.046 1.068v10.205a1.093 1.093 0 002.186 0v-3.545c0-.589.469-1.068 1.045-1.068.577 0 1.046.48 1.046 1.068v4.97a1.092 1.092 0 102.186 0v-3.543c0-.59.468-1.069 1.045-1.069.576 0 1.046.48 1.046 1.069v4.97a1.093 1.093 0 102.186 0v-3.18h-.001z"/></svg>