<svg width="141" height="92" xmlns="http://www.w3.org/2000/svg">
  <g transform="translate(2 2)" stroke="#FFF" stroke-width="4" fill="none" fill-rule="evenodd">
    <rect width="137" height="88" rx="5"/>
    <g transform="translate(16 21)">
      <circle cx="20" cy="12" r="12"/>
      <path d="M39.8931754 45.8941213C38.3390147 31.2980404 31.7079562 24 20 24 8.29205334 24 1.66099613 31.2980286.10682835 45.8940857c-.05851196.5491955.33929612 1.0418151.88849521 1.100293A1.0000308 1.0000308 0 001.10120726 47H38.8988035c.5522808-.0000071.9999929-.4477192.9999929-1a.99998978.99998978 0 00-.005621-.1058787z"/>
    </g>
    <g stroke-linecap="round">
      <path d="M71.5 24.5h49M71.5 37.5h17M103.5 37.5h17M71.5 50.5h41M71.5 64H98"/>
    </g>
  </g>
</svg>
