<?xml version="1.0" encoding="UTF-8"?>
<svg width="141px" height="92px" viewBox="0 0 141 92" version="1.1" xmlns="http://www.w3.org/2000/svg" xmlns:xlink="http://www.w3.org/1999/xlink">
    <!-- Generator: Sketch 58 (84663) - https://sketch.com -->
    <title>icon-photo-id</title>
    <desc>Created with Sketch.</desc>
    <g id="Page-1" stroke="none" stroke-width="1" fill="none" fill-rule="evenodd">
        <g id="photo-id-2" transform="translate(-30.000000, -27.000000)" stroke="#FFFFFF" stroke-width="4">
            <g id="icon-photo-id" transform="translate(32.000000, 29.000000)">
                <rect id="Rectangle" x="0" y="0" width="137" height="88" rx="5"></rect>
                <g id="Group-2" transform="translate(16.000000, 21.000000)">
                    <g id="Group">
                        <circle id="Oval" cx="20" cy="12" r="12"></circle>
                        <path d="M39.8931754,45.8941213 C38.3390147,31.2980404 31.7079562,24 20,24 C8.29205334,24 1.66099613,31.2980286 0.106828354,45.8940857 C0.048316389,46.4432812 0.446124471,46.9359008 0.995323562,46.9943787 C1.03049389,46.9981236 1.06583812,47 1.10120726,47 L38.8988035,47 C39.4510843,46.9999929 39.8987964,46.5522808 39.8987964,46 C39.8987964,45.9646325 39.8969201,45.92929 39.8931754,45.8941213 Z" id="Oval"></path>
                    </g>
                    <g id="details" transform="translate(55.000000, 3.000000)" stroke-linecap="round">
                        <path d="M0.5,0.5 L49.5,0.5" id="Line"></path>
                        <path d="M0.5,13.5 L17.5,13.5" id="Line-Copy"></path>
                        <path d="M32.5,13.5 L49.5,13.5" id="Line-Copy-2"></path>
                        <path d="M0.5,26.5 L41.5,26.5" id="Line-Copy-3"></path>
                        <path d="M0.5,40 L27,40" id="Line-Copy-3"></path>
                    </g>
                </g>
            </g>
        </g>
    </g>
</svg>